<?xml version="1.0"?>
<svg xmlns="http://www.w3.org/2000/svg" viewBox="0 0 512 512" width="512" height="512"><g id="Out_line" data-name="Out line"><path d="M426.34326,322.34277,376,372.68652,323.314,320l90.34278-90.34277-11.31348-11.31446-96,96a8.00034,8.00034,0,0,0,0,11.31446L308.686,328l-24,24H227.314l-24-24,2.34278-2.34277a8.00034,8.00034,0,0,0,0-11.31446l-96-96L98.34326,229.65723,188.686,320,136,372.68652,85.65674,322.34277,74.34326,333.65723l56,56a8.00063,8.00063,0,0,0,11.31348,0L152.00006,379.314,176,403.31348V416a8.00076,8.00076,0,0,0,2.34326,5.65723l72,72a8.00063,8.00063,0,0,0,11.31348,0l72-72A8.00076,8.00076,0,0,0,336,416V403.31348L359.99994,379.314l10.34332,10.34327a8.00063,8.00063,0,0,0,11.31348,0l56-56ZM256,476.68652l-64-64V400a8.00076,8.00076,0,0,0-2.34326-5.65723L163.314,368l28.68628-28.68628,26.343,26.34351A8.00035,8.00035,0,0,0,224,368h28.686l56,56Zm66.34326-82.34375A8.00076,8.00076,0,0,0,320,400v12.686L275.314,368H288a8.00035,8.00035,0,0,0,5.65674-2.34277l26.343-26.34351L348.686,368Z"/><path d="M352,208a39.92608,39.92608,0,0,0-33.57,18.23,48.12565,48.12565,0,0,0-30.43.49V200a7.99786,7.99786,0,0,0,8-8V176h32a7.99786,7.99786,0,0,0,8-8,57.66125,57.66125,0,0,0-21.74-45.24L296,108.1499V101.25a116.51362,116.51362,0,0,0-34.34-82.91016,8.01538,8.01538,0,0,0-11.31994,0A116.51362,116.51362,0,0,0,216,101.25v6.8999L197.74,122.76A57.66125,57.66125,0,0,0,176,168a7.99786,7.99786,0,0,0,8,8h32v16a7.99786,7.99786,0,0,0,8,8v26.72a48.1566,48.1566,0,0,0-30.44-.49A40.02279,40.02279,0,0,0,140,213.3501L148,227.2a24.03482,24.03482,0,0,1,31.2,6.40015,47.90544,47.90544,0,0,0-15.21,19.2L178.66,259.2A32.01306,32.01306,0,0,1,208,240a31.639,31.639,0,0,1,15.75,4.14014,73.31753,73.31753,0,0,1-21.41,46.1997L213.66,301.65991A89.3963,89.3963,0,0,0,240,238.06006V224h32v14.06006a89.3963,89.3963,0,0,0,26.34,63.59985L309.66,290.33984a73.31753,73.31753,0,0,1-21.41-46.1997v-.01026A32.04054,32.04054,0,0,1,333.34,259.2l14.66-6.3999a47.82017,47.82017,0,0,0-15.21-19.19995,24.01217,24.01217,0,0,1,31.2-6.39014l8.02-13.8501A39.96693,39.96693,0,0,0,352,208Zm-56-79.3501,8.26,6.6001A41.7241,41.7241,0,0,1,319.24,160H296ZM216,160H192.76a41.7241,41.7241,0,0,1,14.98-24.75l8.26-6.6001Zm56,48H240v-8h32Zm8-24H232v-8h48Zm0-24H232V101.25a100.51811,100.51811,0,0,1,24-65.46,100.51811,100.51811,0,0,1,24,65.46Z"/><circle cx="376" cy="344" r="8"/><circle cx="136" cy="344" r="8"/></g></svg>
